<svg xmlns="http://www.w3.org/2000/svg" viewBox="0 0 64 64" width="64" height="64">
  <circle cx="32" cy="32" r="25.9" fill="#fff"/>
  <path d="M32 2.8c16.1 0 29.2 13.1 29.2 29.2S48.1 61.2 32 61.2 2.8 48.1 2.8 32 15.9 2.8 32 2.8zm0 5.9C19.1 8.7 8.7 19.1 8.7 32S19.1 55.3 32 55.3 55.3 44.9 55.3 32 44.9 8.7 32 8.7zm16 20.4c1.6 0 2.9 1.3 2.9 2.9s-1.3 2.9-2.9 2.9-2.9-1.3-2.9-2.9 1.3-2.9 2.9-2.9zm-32 0c1.6 0 2.9 1.3 2.9 2.9s-1.3 2.9-2.9 2.9-3-1.3-3-2.9 1.3-2.9 3-2.9zm6.7-10.5c1.1 1.1 1.1 3 0 4.1-1.1 1.1-3 1.1-4.1 0s-1.1-3 0-4.1c1.1-1.1 3-1.1 4.1 0zM32 13c1.6 0 2.9 1.3 2.9 2.9s-1.3 2.9-2.9 2.9-2.9-1.3-2.9-2.9S30.4 13 32 13z" fill="#666"/>
  <path d="M43.2 18.4c.7-.5 1.6-.4 2.2.2.6.6.7 1.5.2 2.2-6.4 8.9-9.9 13.6-10.5 14.3-1.7 1.7-4.5 1.7-6.2 0-1.7-1.7-1.7-4.5 0-6.2 1.1-1.1 5.9-4.6 14.3-10.5z" fill="#1d83d4"/>
</svg>