<svg viewBox="0 -38 512 512" xmlns="http://www.w3.org/2000/svg" width="64" height="64">
  <g transform="matrix(.87 0 0 .87 33.06 -4.35)">
    <circle cx="256" cy="256" r="294" fill="#223c4d"/>
    <path d="M502.695 259.64c-14.14 15.52-24.14 11.731-106.824 11.731-17.629 0-32.879-13.129-35.469-30.539-3.691-24.75-16.03-46.332-33.53-62.09-19.009-17.11-44.11-27.36-70.84-27.37h-.15c-27.421.03-52.452 10.5-71.222 27.628-.05.05-.11.102-.16.152-17.3 15.86-29.277 37.41-32.898 61.68-2.59 17.41-17.84 30.54-35.473 30.54h-80.25c-21.027 0-37.7-18.052-35.719-39.099C5.988 170.25 34 114.73 76.172 73.602c.43-.422.867-.852 1.308-1.27C123.71 27.859 186.64.532 255.883.5h.148c68.91.012 131.602 27.059 177.801 71.18 43.281 41.3 72.09 97.57 78.012 160.593.941 9.97-2.399 19.95-9.149 27.368zm0 0" fill="#f1f2f2"/>
    <path d="M502.695 259.64c-14.14 15.52-24.14 11.731-106.824 11.731-17.629 0-32.879-13.129-35.469-30.539-3.691-24.75-16.03-46.332-33.53-62.09-19.009-17.11-44.11-27.36-70.84-27.37h-.15V.5h.15c68.91.012 131.6 27.059 177.8 71.18 43.281 41.3 72.09 97.57 78.012 160.593.941 9.97-2.399 19.95-9.149 27.368zm0 0" fill="#00c7ce"/>
    <path d="M433.832 71.68l-106.96 107.062c-19.009-17.11-44.11-27.36-70.84-27.37H256c-27.469 0-52.54 10.468-71.34 27.628-.05.05-.11.102-.16.152L76.172 73.602c.43-.422.867-.852 1.308-1.27C123.742 27.832 186.71.5 256 .5h.031c68.91.012 131.602 27.059 177.801 71.18zm0 0" fill="#ffdb83"/>
    <path d="M433.832 71.68l-106.96 107.062c-19.009-17.11-44.11-27.36-70.84-27.37V.5c68.91.012 131.6 27.059 177.8 71.18zm0 0" fill="#fcad2d"/>
    <path d="M406.77 116.672c1.71-12.348-11.805-21.55-22.727-14.82L248.137 185.55c-7.055 4.344-9.25 13.582-4.907 20.637l64.582 58.851c5.02 0 9.918-2.516 12.758-7.09 87.36-140.695 87.121-138.93 86.2-141.277zm0 0" fill="#ff6961"/>
    <g fill="#ddd">
      <path d="M256.031 316.71h-.148c-36.903 0-66.953-29.687-66.953-66.679 0-39.96 32.863-66.398 67.101-66.66 16.59-.14 33.5 5.871 47.16 19.469 41.872 41.683 12.41 113.754-47.16 113.87zm0 0M427.133 361.121c0 8.293-6.711 15-15 15H99.87c-8.289 0-15-6.707-15-15 0-8.277 6.711-15 15-15h312.262c8.289 0 15 6.723 15 15zm0 0M349.012 420.504c0 8.281-6.719 15-15 15H177.75c-8.277 0-15-6.719-15-15 0-8.29 6.723-15 15-15h156.262c8.281 0 15 6.71 15 15zm0 0"/>
    </g>
  </g>
</svg>
